inDegrees=yes
name=ik_S42_A10_T02
DataType=double
version=3
OpenSimVersion=4.3-2021-08-27-4bc7ad9
endheader
time	pelvis_tilt	pelvis_list	pelvis_rotation	pelvis_tx	pelvis_ty	pelvis_tz	hip_flexion_r	hip_adduction_r	hip_rotation_r	knee_angle_r	knee_angle_r_beta	ankle_angle_r	subtalar_angle_r	mtp_angle_r	hip_flexion_l	hip_adduction_l	hip_rotation_l	knee_angle_l	knee_angle_l_beta	ankle_angle_l	subtalar_angle_l	mtp_angle_l	lumbar_extension	lumbar_bending	lumbar_rotation	arm_flex_r	arm_add_r	arm_rot_r	elbow_flex_r	pro_sup_r	wrist_flex_r	wrist_dev_r	arm_flex_l	arm_add_l	arm_rot_l	elbow_flex_l	pro_sup_l	wrist_flex_l	wrist_dev_l
10.37999999999987	-1.41458737428521	0.8573624363243223	27.20474379362836	0	0.9399999999999999	0	44.81201535615241	-9.999977921490832	-9.999318465953964	54.60106446041493	0.9529683499279016	0	0	0	44.81201535615241	-9.999977921490832	-9.999318465953964	54.60106446041493	0.9529683499279016	0	0	0	-0.5987353079010901	0.6760564531453076	2.853567807928731	52.35256303307285	-4.127812325594038	35.57820464248405	34.85571996286611	50.57657712438281	0	0	42.81976071766211	5.674661567970843	0.5474072349860793	20.17925815923082	81.14501105093862	0	0
10.39999999999987	-1.416725403288982	0.8606489328807505	27.25997544933545	0	0.9399999999999999	0	44.81380432429944	-9.999978423542712	-9.999329932580292	54.60438700065615	0.9530263391946409	0	0	0	44.81380432429944	-9.999978423542712	-9.999329932580292	54.60438700065615	0.9530263391946409	0	0	0	-0.5988836472162382	0.6744168025440558	2.801668252941459	55.7797326651061	-3.948201649143345	34.26959810794036	34.52519099308829	51.09846101283711	0	0	46.25319720421061	5.486494737709354	-1.114446553383343	17.70253452206489	82.35471581991615	0	0
10.41999999999987	-1.413957150372792	0.8602155771510216	27.30937280384617	0	0.9399999999999999	0	44.8162524475969	-9.999979088649503	-9.999345338765401	54.60898206243511	0.9531065381520163	0	0	0	44.8162524475969	-9.999979088649503	-9.999345338765401	54.60898206243511	0.9531065381520163	0	0	0	-0.6020950911421133	0.6797667164461535	2.75086746927306	59.42640643572413	-3.743943664188026	32.88803572555422	34.04812091147934	51.67302164483211	0	0	49.77616257862326	5.109597604421251	-2.049696051352789	19.43816298760132	82.03863136489699	0	0
10.43999999999987	-0.3578580652260759	1.420613230641327	27.31627488785442	0	0.9399999999999999	0	44.81946532303118	-9.999979932991746	-9.999365191636718	54.61505299148649	0.9532124958526179	0	0	0	44.81946532303118	-9.999979932991746	-9.999365191636718	54.61505299148649	0.9532124958526179	0	0	0	0.5869555930887532	0.7179124806334478	2.76924057514412	57.40734563670465	-4.160447817683005	32.75756711834946	36.35304582103557	51.94323432670439	0	0	47.38138909432229	4.952305800957379	-1.653195859480215	21.54694311907481	81.34991300268588	0	0
10.45999999999987	-0.2373709629805167	1.498897708905165	27.32261774050687	0	0.9399999999999999	0	44.82142991769557	-9.999980446813273	-9.999377292449999	54.61875471399847	0.953277103098447	0	0	0	44.82142991769557	-9.999980446813273	-9.999377292449999	54.61875471399847	0.953277103098447	0	0	0	0.7289645352031955	0.7323717944837226	2.736190866717954	60.76387062473108	-3.987161148375164	31.78253510177837	36.00819112778797	52.14392437302458	0	0	50.61537643951436	4.675258387426686	-2.251496891525544	21.92371678294006	80.78900883020434	0	0
10.47999999999987	0.0342917423294918	1.649526425414494	27.4296940786074	0	0.9399999999999999	0	44.82432501386043	-9.999981194574277	-9.999395000251051	54.6242141494477	0.9533723882223362	0	0	0	44.82432501386043	-9.999981194574277	-9.999395000251051	54.6242141494477	0.9533723882223362	0	0	0	1.025232320293057	0.7656738901745117	2.608250209629525	67.2476033999275	-2.694474810007006	31.57373425474589	34.06880958648641	51.47807125357816	0	0	53.35593842535936	4.198338478883294	-1.986457107472619	23.22423772873291	78.98249407829533	0	0
10.49999999999986	0.2899642069451529	1.78691850565969	27.50819545681739	0	0.9399999999999999	0	44.8267851849816	-9.999981812480511	-9.999409814352726	54.62887676766834	0.95345376626205	0	0	0	44.8267851849816	-9.999981812480511	-9.999409814352726	54.62887676766834	0.95345376626205	0	0	0	1.307867000841257	0.7723470892149483	2.525319529998877	70.34609298973254	-2.182014369161652	32.36717792526809	34.16361081093551	50.08919423893038	0	0	59.77113964202885	3.819629327247178	-1.342662965067413	21.80276487865136	76.17258444867107	0	0
10.51999999999986	0.5011587021263025	1.917285155158042	27.62960836764283	0	0.9399999999999999	0	44.8301032015456	-9.999982634857982	-9.999429651523954	54.63515545103537	0.9535633499594949	0	0	0	44.8301032015456	-9.999982634857982	-9.999429651523954	54.63515545103537	0.9535633499594949	0	0	0	1.564939836794252	0.7618810785423487	2.421019720550808	73.51160681234859	-1.801631671188886	33.42143313669065	34.54715539412376	48.36765129454928	0	0	62.80491379124408	3.140081206651259	-0.4527826380806468	25.77841813450021	73.8056462897349	0	0
10.53999999999986	0.7341108065765134	2.043696357483835	27.73927599985457	0	0.9399999999999999	0	44.83246802060751	-9.99998321124845	-9.999443656691158	54.63963116419519	0.9536414658905086	0	0	0	44.83246802060751	-9.99998321124845	-9.999443656691158	54.63963116419519	0.9536414658905086	0	0	0	1.835476574078828	0.7458599759419028	2.363834496625772	76.75138814873247	-1.460907824032305	34.41278733536105	34.89902212332243	46.99124013460044	0	0	65.95460964161421	2.62109765850047	0.1261834481119946	27.37646318641989	72.03683297433423	0	0
